<?xml version="1.0" encoding="UTF-8" standalone="no"?>
<!-- Created with Inkscape (http://www.inkscape.org/) -->

<svg
   xmlns:dc="http://purl.org/dc/elements/1.1/"
   xmlns:cc="http://creativecommons.org/ns#"
   xmlns:rdf="http://www.w3.org/1999/02/22-rdf-syntax-ns#"
   xmlns:svg="http://www.w3.org/2000/svg"
   xmlns="http://www.w3.org/2000/svg"
   xmlns:sodipodi="http://sodipodi.sourceforge.net/DTD/sodipodi-0.dtd"
   xmlns:inkscape="http://www.inkscape.org/namespaces/inkscape"
   version="1.1"
   id="svg2"
   xml:space="preserve"
   width="576.55219"
   height="84.931999"
   viewBox="0 0 576.55219 84.932"
   sodipodi:docname="ground.svg"
   inkscape:version="0.92.2 2405546, 2018-03-11"><metadata
     id="metadata8"><rdf:RDF><cc:Work
         rdf:about=""><dc:format>image/svg+xml</dc:format><dc:type
           rdf:resource="http://purl.org/dc/dcmitype/StillImage" /><dc:title></dc:title></cc:Work></rdf:RDF></metadata><defs
     id="defs6" /><sodipodi:namedview
     pagecolor="#ffffff"
     bordercolor="#666666"
     borderopacity="1"
     objecttolerance="10"
     gridtolerance="10"
     guidetolerance="10"
     inkscape:pageopacity="0"
     inkscape:pageshadow="2"
     inkscape:window-width="1920"
     inkscape:window-height="1010"
     id="namedview4"
     showgrid="false"
     fit-margin-top="0"
     fit-margin-left="0"
     fit-margin-right="0"
     fit-margin-bottom="0"
     inkscape:zoom="0.50063159"
     inkscape:cx="-777.67436"
     inkscape:cy="6.1647244"
     inkscape:window-x="0"
     inkscape:window-y="0"
     inkscape:window-maximized="1"
     inkscape:current-layer="g12" /><g
     id="g10"
     inkscape:groupmode="layer"
     inkscape:label="ink_ext_XXXXXX"
     transform="matrix(1.3333333,0,0,-1.3333333,-0.04846834,666.90493)"><g
       id="g12"
       transform="scale(0.1)"><path
         d="M 1441.6252,4664.6771 H 1.2012353 v -299.88 H 4324.3752 v 299.88 h -2882.75"
         style="fill:#c49a6c;fill-opacity:1;fill-rule:nonzero;stroke:none"
         id="path16"
         inkscape:connector-curvature="0" /><path
         d="m 706.16524,4439.1371 c -20.96,-30.29 -55.707,-42.57 -77.593,-27.42 -21.891,15.15 -22.645,51.98 -1.684,82.27 20.969,30.3 55.707,42.57 77.597,27.43 21.89,-15.15 22.64,-51.99 1.68,-82.28"
         style="fill:#a97c50;fill-opacity:1;fill-rule:nonzero;stroke:none"
         id="path18"
         inkscape:connector-curvature="0" /><path
         d="m 251.72024,4469.8771 c 19.422,-23.07 20.606,-54.03 2.653,-69.15 -17.965,-15.11 -48.262,-8.66 -67.688,14.41 -19.414,23.08 -20.602,54.04 -2.637,69.15 17.953,15.12 48.25,8.66 67.672,-14.41"
         style="fill:#a97c50;fill-opacity:1;fill-rule:nonzero;stroke:none"
         id="path20"
         inkscape:connector-curvature="0" /><path
         d="m 336.58324,4430.3771 c 10.438,-12.41 11.071,-29.03 1.418,-37.16 -9.644,-8.12 -25.929,-4.66 -36.367,7.74 -10.433,12.4 -11.07,29.04 -1.414,37.17 9.649,8.11 25.93,4.65 36.363,-7.75"
         style="fill:#a97c50;fill-opacity:1;fill-rule:nonzero;stroke:none"
         id="path22"
         inkscape:connector-curvature="0" /><path
         d="m 583.46624,4420.6771 c -8.058,-14.06 -23.457,-20.37 -34.402,-14.11 -10.949,6.28 -13.285,22.76 -5.234,36.82 8.058,14.06 23.46,20.38 34.414,14.11 10.937,-6.28 13.285,-22.76 5.222,-36.82"
         style="fill:#a97c50;fill-opacity:1;fill-rule:nonzero;stroke:none"
         id="path24"
         inkscape:connector-curvature="0" /><path
         d="m 988.74524,4392.7971 c -8.06,-14.06 -23.46,-20.38 -34.4,-14.11 -10.95,6.27 -13.29,22.76 -5.24,36.82 8.06,14.06 23.46,20.37 34.41,14.1 10.94,-6.27 13.29,-22.75 5.23,-36.81"
         style="fill:#a97c50;fill-opacity:1;fill-rule:nonzero;stroke:none"
         id="path26"
         inkscape:connector-curvature="0" /><path
         d="m 971.10524,4466.6071 c -14.72,-19 -38.62,-25.13 -53.42,-13.68 -14.8,11.45 -14.86,36.14 -0.16,55.14 14.72,19 38.63,25.13 53.43,13.68 14.78,-11.45 14.87,-36.13 0.15,-55.14"
         style="fill:#a97c50;fill-opacity:1;fill-rule:nonzero;stroke:none"
         id="path28"
         inkscape:connector-curvature="0" /><path
         d="m 1182.4652,4473.1371 c 21.73,-18.54 27.65,-47.25 13.23,-64.16 -14.42,-16.92 -43.71,-15.61 -65.43,2.89 -21.73,18.54 -27.67,47.26 -13.25,64.17 14.41,16.91 43.71,15.63 65.45,-2.9"
         style="fill:#a97c50;fill-opacity:1;fill-rule:nonzero;stroke:none"
         id="path30"
         inkscape:connector-curvature="0" /><path
         d="m 1280.0752,4433.1271 c 13.79,-11.76 17.55,-29.98 8.4,-40.71 -9.15,-10.74 -27.74,-9.9 -41.52,1.84 -13.79,11.76 -17.56,29.98 -8.4,40.71 9.14,10.73 27.73,9.92 41.52,-1.84"
         style="fill:#a97c50;fill-opacity:1;fill-rule:nonzero;stroke:none"
         id="path32"
         inkscape:connector-curvature="0" /><path
         d="m 1441.6252,4618.8771 h 0.12 l -0.12,1.87 z"
         style="fill:#8dc63f;fill-opacity:1;fill-rule:nonzero;stroke:none"
         id="path34"
         inkscape:connector-curvature="0" /><path
         d="m 2147.5352,4439.1371 c -20.96,-30.29 -55.69,-42.57 -77.59,-27.42 -21.89,15.15 -22.63,51.98 -1.67,82.27 20.96,30.3 55.7,42.57 77.59,27.43 21.89,-15.15 22.64,-51.99 1.67,-82.28"
         style="fill:#a97c50;fill-opacity:1;fill-rule:nonzero;stroke:none"
         id="path36"
         inkscape:connector-curvature="0" /><path
         d="m 1693.1052,4469.8771 c 19.42,-23.07 20.6,-54.03 2.64,-69.15 -17.96,-15.11 -48.26,-8.66 -67.68,14.41 -19.42,23.08 -20.6,54.04 -2.63,69.15 17.95,15.12 48.24,8.66 67.67,-14.41"
         style="fill:#a97c50;fill-opacity:1;fill-rule:nonzero;stroke:none"
         id="path38"
         inkscape:connector-curvature="0" /><path
         d="m 1777.9652,4430.3771 c 10.43,-12.41 11.07,-29.03 1.42,-37.16 -9.65,-8.12 -25.93,-4.66 -36.37,7.74 -10.43,12.4 -11.07,29.04 -1.42,37.17 9.66,8.11 25.93,4.65 36.37,-7.75"
         style="fill:#a97c50;fill-opacity:1;fill-rule:nonzero;stroke:none"
         id="path40"
         inkscape:connector-curvature="0" /><path
         d="m 2024.8452,4420.6771 c -8.06,-14.06 -23.45,-20.37 -34.41,-14.11 -10.94,6.28 -13.28,22.76 -5.22,36.82 8.06,14.06 23.46,20.38 34.4,14.11 10.95,-6.28 13.3,-22.76 5.23,-36.82"
         style="fill:#a97c50;fill-opacity:1;fill-rule:nonzero;stroke:none"
         id="path42"
         inkscape:connector-curvature="0" /><path
         d="m 2430.1252,4392.7971 c -8.06,-14.06 -23.45,-20.38 -34.41,-14.11 -10.94,6.27 -13.28,22.76 -5.23,36.82 8.07,14.06 23.46,20.37 34.41,14.1 10.95,-6.27 13.29,-22.75 5.23,-36.81"
         style="fill:#a97c50;fill-opacity:1;fill-rule:nonzero;stroke:none"
         id="path44"
         inkscape:connector-curvature="0" /><path
         d="m 2412.4852,4466.6071 c -14.72,-19 -38.62,-25.13 -53.42,-13.68 -14.79,11.45 -14.86,36.14 -0.16,55.14 14.72,19 38.64,25.13 53.42,13.68 14.8,-11.45 14.87,-36.13 0.16,-55.14"
         style="fill:#a97c50;fill-opacity:1;fill-rule:nonzero;stroke:none"
         id="path46"
         inkscape:connector-curvature="0" /><path
         d="m 2623.8552,4473.1371 c 21.72,-18.54 27.63,-47.25 13.23,-64.16 -14.42,-16.92 -43.72,-15.61 -65.44,2.89 -21.74,18.54 -27.67,47.26 -13.25,64.17 14.4,16.91 43.71,15.63 65.46,-2.9"
         style="fill:#a97c50;fill-opacity:1;fill-rule:nonzero;stroke:none"
         id="path48"
         inkscape:connector-curvature="0" /><path
         d="m 2721.4652,4433.1271 c 13.77,-11.76 17.53,-29.98 8.38,-40.71 -9.14,-10.74 -27.73,-9.9 -41.51,1.84 -13.79,11.76 -17.56,29.98 -8.4,40.71 9.13,10.73 27.74,9.92 41.53,-1.84"
         style="fill:#a97c50;fill-opacity:1;fill-rule:nonzero;stroke:none"
         id="path50"
         inkscape:connector-curvature="0" /><path
         d="m 2883.0052,4618.8771 h 0.12 l -0.12,1.87 z"
         style="fill:#8dc63f;fill-opacity:1;fill-rule:nonzero;stroke:none"
         id="path52"
         inkscape:connector-curvature="0" /><path
         d="M 2883.0052,4664.6771 H 1.2012353 v -218.01 c 10.1089997,-0.82 21.1439997,-4.14 31.8389997,-4.15 31.704,-0.05 66.442,1.22 94.598005,17.53 31.102,18.01 34.106,56.22 76.41,54.37 28.91,-1.26 50.996,-23.15 77.602,-31.59 32.512,-10.31 66.098,-12.34 94.113,5.31 23.809,15 36.707,42.61 66.801,47.71 26.996,4.58 35.781,-34.59 66.266,-35.73 62.562,-2.44 91.082,24.51 109.277,33.46 41.058,20.19 75.788,29.02 113.128,14.2 47.68,-18.92 6.37,-93.7 56.07,-88.37 66.8,7.16 109.8,83.94 161.03,85.99 59.63996,2.38 77.45996,-26.32 119.28996,-38.18 39.84,-11.29 50.43,19.12 90.41,6.6 32.56,-10.2 58.56,-44 95.01,-44.38 20.42,-0.22 25.72,18.49 96.42,11.72 31.49,-3.58 23.56,-33.49 92.16,-36.18 10.1,-0.82 22.1,-2.45 32.8,-2.46 31.7,-0.05 66.43,1.22 94.59,17.53 31.11,18.01 34.11,56.22 76.42,54.37 28.91,-1.26 50.99,-23.15 77.59,-31.59 32.52,-10.31 66.1,-12.34 94.11,5.31 23.82,15 36.71,42.61 66.81,47.71 26.99,4.58 35.78,-34.59 66.27,-35.73 62.55,-2.44 91.08,24.51 109.27,33.46 41.05,20.19 75.79,29.02 113.13,14.2 47.67,-18.92 6.36,-93.7 56.06,-88.37 66.8,7.16 109.81,83.94 161.04,85.99 59.64,2.38 77.46,-26.32 119.28,-38.18 39.85,-11.29 50.44,19.12 90.41,6.6 32.57,-10.2 58.57,-44 95.02,-44.38 20.41,-0.22 25.71,18.49 96.43,11.72 31.47,-3.58 23.55,-33.49 92.15,-36.18 v 0.94 c 11.04,-1.42 25.09,-3.4 32.8,-3.4 31.7,-0.05 66.44,1.22 94.59,17.53 31.1,18.01 34.11,56.22 76.42,54.37 28.9,-1.26 50.99,-23.15 77.59,-31.59 32.51,-10.31 66.1,-12.34 94.12,5.31 23.8,15 36.7,42.61 66.79,47.71 27,4.58 35.79,-34.59 66.27,-35.73 62.57,-2.44 91.1,24.51 109.28,33.46 41.05,20.19 75.79,29.02 113.13,14.2 47.68,-18.92 6.37,-93.7 56.06,-88.37 66.8,7.16 109.81,83.94 161.03,85.99 59.64,2.38 77.47,-26.32 119.29,-38.18 39.85,-11.29 50.43,19.12 90.41,6.6 32.57,-10.2 58.57,-44 95.02,-44.38 20.41,-0.22 25.7,18.49 96.42,11.72 31.48,-3.58 23.56,-33.49 92.15,-36.18 v 219.7 h -1441.37"
         style="fill:#a97c50;fill-opacity:1;fill-rule:nonzero;stroke:none"
         id="path54"
         inkscape:connector-curvature="0" /><path
         d="m 1.2012353,4664.6771 v -64.42 H 4324.3752 v 64.42 H 1.2012353"
         style="fill:#7e4a36;fill-opacity:1;fill-rule:nonzero;stroke:none"
         id="path56"
         inkscape:connector-curvature="0" /><path
         d="m 3588.9252,4439.1371 c -20.97,-30.29 -55.7,-42.57 -77.6,-27.42 -21.89,15.15 -22.64,51.98 -1.68,82.27 20.97,30.3 55.71,42.57 77.6,27.43 21.89,-15.15 22.64,-51.99 1.68,-82.28"
         style="fill:#a97c50;fill-opacity:1;fill-rule:nonzero;stroke:none"
         id="path58"
         inkscape:connector-curvature="0" /><path
         d="m 3134.4752,4469.8771 c 19.43,-23.07 20.61,-54.03 2.65,-69.15 -17.96,-15.11 -48.26,-8.66 -67.69,14.41 -19.41,23.08 -20.59,54.04 -2.62,69.15 17.95,15.12 48.25,8.66 67.66,-14.41"
         style="fill:#a97c50;fill-opacity:1;fill-rule:nonzero;stroke:none"
         id="path60"
         inkscape:connector-curvature="0" /><path
         d="m 3219.3452,4430.3771 c 10.44,-12.41 11.07,-29.03 1.42,-37.16 -9.66,-8.12 -25.94,-4.66 -36.37,7.74 -10.42,12.4 -11.07,29.04 -1.42,37.17 9.65,8.11 25.94,4.65 36.37,-7.75"
         style="fill:#a97c50;fill-opacity:1;fill-rule:nonzero;stroke:none"
         id="path62"
         inkscape:connector-curvature="0" /><path
         d="m 3466.2252,4420.6771 c -8.06,-14.06 -23.46,-20.37 -34.4,-14.11 -10.95,6.28 -13.28,22.76 -5.23,36.82 8.05,14.06 23.46,20.38 34.41,14.11 10.93,-6.28 13.29,-22.76 5.22,-36.82"
         style="fill:#a97c50;fill-opacity:1;fill-rule:nonzero;stroke:none"
         id="path64"
         inkscape:connector-curvature="0" /><path
         d="m 3871.4952,4392.7971 c -8.05,-14.06 -23.44,-20.38 -34.41,-14.11 -10.94,6.27 -13.27,22.76 -5.21,36.82 8.04,14.06 23.44,20.37 34.4,14.1 10.95,-6.27 13.29,-22.75 5.22,-36.81"
         style="fill:#a97c50;fill-opacity:1;fill-rule:nonzero;stroke:none"
         id="path66"
         inkscape:connector-curvature="0" /><path
         d="m 3853.8652,4466.6071 c -14.73,-19 -38.62,-25.13 -53.42,-13.68 -14.8,11.45 -14.85,36.14 -0.17,55.14 14.73,19 38.64,25.13 53.44,13.68 14.78,-11.45 14.85,-36.13 0.15,-55.14"
         style="fill:#a97c50;fill-opacity:1;fill-rule:nonzero;stroke:none"
         id="path68"
         inkscape:connector-curvature="0" /><path
         d="m 4065.2252,4473.1371 c 21.73,-18.54 27.64,-47.25 13.24,-64.16 -14.44,-16.92 -43.71,-15.61 -65.44,2.89 -21.74,18.54 -27.67,47.26 -13.26,64.17 14.41,16.91 43.73,15.63 65.46,-2.9"
         style="fill:#a97c50;fill-opacity:1;fill-rule:nonzero;stroke:none"
         id="path70"
         inkscape:connector-curvature="0" /><path
         d="m 4162.8352,4433.1271 c 13.79,-11.76 17.54,-29.98 8.39,-40.71 -9.14,-10.74 -27.73,-9.9 -41.51,1.84 -13.79,11.76 -17.56,29.98 -8.41,40.71 9.14,10.73 27.73,9.92 41.53,-1.84"
         style="fill:#a97c50;fill-opacity:1;fill-rule:nonzero;stroke:none"
         id="path72"
         inkscape:connector-curvature="0" /><path
         d="m 4324.3752,4618.8771 h 0.13 l -0.13,1.87 z"
         style="fill:#8dc63f;fill-opacity:1;fill-rule:nonzero;stroke:none"
         id="path74"
         inkscape:connector-curvature="0" /><path
         d="m 4289.1452,4730.0971 c 7.16,83.6 -50.1,204.81 -50.1,204.81 23.86,-96.13 0,-206.9 0,-206.9 -19.08,41.8 -31.01,121.21 -31.01,121.21 -26.24,-52.24 -31.8,-137.93 -31.8,-137.93 l -29.97,77.33 -12.19,-73.15 c -31.01,50.79 -17.76,231.99 -17.76,231.99 -41.64,-68.97 -58.59,-209 -58.59,-209 -9.54,73.78 -65.83,142.12 -65.83,142.12 27.2,-96.14 15.74,-163.02 15.74,-163.02 l -31.02,71.06 -26.24,-73.15 -26.25,73.15 -35.78,-87.77 c 4.78,169.27 -61.27,252.87 -61.27,252.87 38.93,-104.5 -10.3,-225.71 -10.3,-225.71 4.77,50.16 -27.47,105.22 -27.47,105.22 -1.23,-53.61 -36.95,-96.86 -36.95,-96.86 -26.24,85.69 0,177.64 0,177.64 -64.41,-54.33 -76.34,-177.64 -76.34,-177.64 -11.92,87.78 21.47,221.53 21.47,221.53 -57.25,-50.16 -93.32,-250.79 -93.32,-250.79 l -23.57,87.78 -31.3,-62.7 c 4.47,123.94 -54.9,188.09 -54.9,188.09 37.88,-110.76 -23.36,-200.63 -23.36,-200.63 -38.01,37.62 -35.97,129.57 -35.97,129.57 -50.1,-43.88 -40.56,-133.75 -40.56,-133.75 l -35.78,85.69 -35.79,-83.6 c -4.78,83.6 35.79,215.26 35.79,215.26 -57.26,-43.88 -100.2,-221.53 -100.2,-221.53 0,112.86 -56.65,198.54 -56.65,198.54 25.74,-119.12 0,-181.82 0,-181.82 l -10.15,54.34 -31.02,-43.89 -10.85,73.15 c -20.39,-27.17 -47.89,-77.33 -47.89,-77.33 -22.96,79.42 27.73,215.26 27.73,215.26 -83.51,-58.51 -85.89,-236.16 -85.89,-236.16 0,39.71 -21.48,119.85 -21.48,119.85 0,-45.25 -26.24,-88.5 -26.24,-88.5 -21.47,50.16 -21.47,137.94 -21.47,137.94 -33.4,-54.34 -28.62,-154.66 -28.62,-154.66 -26.25,91.96 -26.25,273.78 -26.25,273.78 -21.63,-48.89 -30.77,-127.92 -34.4,-197.19 v 0.08 l -37.58,-74.58 c 7.16,83.6 -50.09,204.81 -50.09,204.81 23.85,-96.13 0,-206.9 0,-206.9 -19.09,41.8 -31.02,121.21 -31.02,121.21 -26.24,-52.24 -31.81,-137.93 -31.81,-137.93 l -29.96,77.33 -12.18,-73.15 c -31.02,50.79 -17.78,231.99 -17.78,231.99 -41.63,-68.97 -58.57,-209 -58.57,-209 -9.54,73.78 -65.84,142.12 -65.84,142.12 27.21,-96.14 15.74,-163.02 15.74,-163.02 l -31.02,71.06 -26.24,-73.15 -26.24,73.15 -35.79,-87.77 c 4.78,169.27 -61.27,252.87 -61.27,252.87 38.93,-104.5 -10.3,-225.71 -10.3,-225.71 4.78,50.16 -27.47,105.22 -27.47,105.22 -1.23,-53.61 -36.94,-96.86 -36.94,-96.86 -26.24,85.69 0,177.64 0,177.64 -64.42,-54.33 -76.34,-177.64 -76.34,-177.64 -11.93,87.78 21.46,221.53 21.46,221.53 -57.25,-50.16 -93.32,-250.79 -93.32,-250.79 l -23.57,87.78 -31.31,-62.7 c 4.48,123.94 -54.88,188.09 -54.88,188.09 37.87,-110.76 -23.38,-200.63 -23.38,-200.63 -38,37.62 -35.96,129.57 -35.96,129.57 -50.1,-43.88 -40.56,-133.75 -40.56,-133.75 l -35.79,85.69 -35.78,-83.6 c -4.77,83.6 35.78,215.26 35.78,215.26 -57.25,-43.88 -100.2,-221.53 -100.2,-221.53 0,112.86 -56.65,198.54 -56.65,198.54 25.74,-119.12 0,-181.82 0,-181.82 l -10.14,54.34 -31.02,-43.89 -10.85,73.15 c -20.39,-27.17 -47.89,-77.33 -47.89,-77.33 -22.95,79.42 27.73,215.26 27.73,215.26 -83.5,-58.51 -85.89,-236.16 -85.89,-236.16 0,39.71 -21.47,119.85 -21.47,119.85 0,-45.25 -26.24,-88.5 -26.24,-88.5 -21.48,50.16 -21.48,137.94 -21.48,137.94 -33.4,-54.34 -28.63,-154.66 -28.63,-154.66 -26.24,91.96 -26.24,273.78 -26.24,273.78 -22.52,-50.88 -31.49,-134.42 -34.82,-205.6 v 0.1 l -37.15,-66.19 c 7.16,83.6 -50.1,204.81 -50.1,204.81 23.86,-96.13 0,-206.9 0,-206.9 -19.08,41.8 -31.01,121.21 -31.01,121.21 -26.25,-52.24 -31.81,-137.93 -31.81,-137.93 l -29.96,77.33 -12.19,-73.15 c -31.01,50.79 -17.77,231.99 -17.77,231.99 -41.64,-68.97 -58.57,-209 -58.57,-209 -9.55,73.78 -65.85,142.12 -65.85,142.12 27.2,-96.14 15.75,-163.02 15.75,-163.02 l -31.02,71.06 -26.24,-73.15 -26.24,73.15 -35.79,-87.77 c 4.77,169.27 -61.27996,252.87 -61.27996,252.87 38.92,-104.5 -10.29,-225.71 -10.29,-225.71 4.77,50.16 -27.48,105.22 -27.48,105.22 -1.24,-53.61 -36.94,-96.86 -36.94,-96.86 -26.24,85.69 0,177.64 0,177.64 -64.41,-54.33 -76.34,-177.64 -76.34,-177.64 -11.93,87.78 21.47,221.53 21.47,221.53 -57.26,-50.16 -93.33,-250.79 -93.33,-250.79 l -23.57,87.78 -31.31,-62.7 c 4.48,123.94 -54.879,188.09 -54.879,188.09 37.871,-110.76 -23.383,-200.63 -23.383,-200.63 -38,37.62 -35.957,129.57 -35.957,129.57 -50.101,-43.88 -40.558,-133.75 -40.558,-133.75 l -35.786,85.69 -35.785,-83.6 c -4.769,83.6 35.785,215.26 35.785,215.26 -57.257,-43.88 -100.199,-221.53 -100.199,-221.53 0,112.86 -56.656,198.54 -56.656,198.54 25.738,-119.12 0,-181.82 0,-181.82 l -10.149,54.34 -31.011,-43.89 -10.848,73.15 c -20.391,-27.17 -47.894,-77.33 -47.894,-77.33 -22.95,79.42 27.722,215.26 27.722,215.26 -83.496,-58.51 -85.883,-236.16 -85.883,-236.16 0,39.71 -21.468,119.85 -21.468,119.85 0,-45.25 -26.246,-88.5 -26.246,-88.5 -21.469005,50.16 -21.469005,137.94 -21.469005,137.94 -33.403,-54.34 -28.633,-154.66 -28.633,-154.66 -26.238,91.96 -26.238,273.78 -26.238,273.78 -45.3319997,-102.4 -35.7889997,-337.11 -35.7889997,-337.11 H 4324.3752 v 134.39 l -35.23,-68.97"
         style="fill:#8dc63f;fill-opacity:1;fill-rule:nonzero;stroke:none"
         id="path76"
         inkscape:connector-curvature="0" /></g></g></svg>