<?xml version="1.0" encoding="UTF-8" standalone="no"?>
<!-- Created with Inkscape (http://www.inkscape.org/) -->

<svg
   xmlns:dc="http://purl.org/dc/elements/1.1/"
   xmlns:cc="http://creativecommons.org/ns#"
   xmlns:rdf="http://www.w3.org/1999/02/22-rdf-syntax-ns#"
   xmlns:svg="http://www.w3.org/2000/svg"
   xmlns="http://www.w3.org/2000/svg"
   xmlns:sodipodi="http://sodipodi.sourceforge.net/DTD/sodipodi-0.dtd"
   xmlns:inkscape="http://www.inkscape.org/namespaces/inkscape"
   version="1.1"
   id="svg2"
   xml:space="preserve"
   width="576.39001"
   height="84.931999"
   viewBox="0 0 576.39001 84.932"
   sodipodi:docname="ground.svg"
   inkscape:version="0.92.2 2405546, 2018-03-11"><metadata
     id="metadata8"><rdf:RDF><cc:Work
         rdf:about=""><dc:format>image/svg+xml</dc:format><dc:type
           rdf:resource="http://purl.org/dc/dcmitype/StillImage" /><dc:title></dc:title></cc:Work></rdf:RDF></metadata><defs
     id="defs6" /><sodipodi:namedview
     pagecolor="#ffffff"
     bordercolor="#666666"
     borderopacity="1"
     objecttolerance="10"
     gridtolerance="10"
     guidetolerance="10"
     inkscape:pageopacity="0"
     inkscape:pageshadow="2"
     inkscape:window-width="1920"
     inkscape:window-height="1010"
     id="namedview4"
     showgrid="false"
     fit-margin-top="0"
     fit-margin-left="0"
     fit-margin-right="0"
     fit-margin-bottom="0"
     inkscape:zoom="2"
     inkscape:cx="357.0173"
     inkscape:cy="71.502256"
     inkscape:window-x="0"
     inkscape:window-y="0"
     inkscape:window-maximized="1"
     inkscape:current-layer="g10" /><g
     id="g10"
     inkscape:groupmode="layer"
     inkscape:label="ink_ext_XXXXXX"
     transform="matrix(1.3333333,0,0,-1.3333333,-0.04846834,666.90497)"><path
       inkscape:connector-curvature="0"
       id="path16"
       style="fill:#c49a6c;fill-opacity:1;fill-rule:nonzero;stroke:none;stroke-width:0.1"
       d="M 144.08106,466.46774 H 0.03866873 v -29.988 H 432.35606 v 29.988 h -288.275" /><path
       inkscape:connector-curvature="0"
       id="path18"
       style="fill:#a97c50;fill-opacity:1;fill-rule:nonzero;stroke:none;stroke-width:0.1"
       d="m 70.535069,443.91374 c -2.096,-3.029 -5.5707,-4.257 -7.7593,-2.742 -2.1891,1.515 -2.2645,5.198 -0.1684,8.227 2.0969,3.03 5.5707,4.257 7.7597,2.743 2.189,-1.515 2.264,-5.199 0.168,-8.228" /><path
       inkscape:connector-curvature="0"
       id="path20"
       style="fill:#a97c50;fill-opacity:1;fill-rule:nonzero;stroke:none;stroke-width:0.1"
       d="m 25.090569,446.98774 c 1.9422,-2.307 2.0606,-5.403 0.2653,-6.915 -1.7965,-1.511 -4.8262,-0.866 -6.7688,1.441 -1.9414,2.308 -2.0602,5.404 -0.2637,6.915 1.7953,1.512 4.825,0.866 6.7672,-1.441" /><path
       inkscape:connector-curvature="0"
       id="path22"
       style="fill:#a97c50;fill-opacity:1;fill-rule:nonzero;stroke:none;stroke-width:0.1"
       d="m 33.576869,443.03774 c 1.0438,-1.241 1.1071,-2.903 0.1418,-3.716 -0.9644,-0.812 -2.5929,-0.466 -3.6367,0.774 -1.0433,1.24 -1.107,2.904 -0.1414,3.717 0.9649,0.811 2.593,0.465 3.6363,-0.775" /><path
       inkscape:connector-curvature="0"
       id="path24"
       style="fill:#a97c50;fill-opacity:1;fill-rule:nonzero;stroke:none;stroke-width:0.1"
       d="m 58.265169,442.06774 c -0.8058,-1.406 -2.3457,-2.037 -3.4402,-1.411 -1.0949,0.628 -1.3285,2.276 -0.5234,3.682 0.8058,1.406 2.346,2.038 3.4414,1.411 1.0937,-0.628 1.3285,-2.276 0.5222,-3.682" /><path
       inkscape:connector-curvature="0"
       id="path26"
       style="fill:#a97c50;fill-opacity:1;fill-rule:nonzero;stroke:none;stroke-width:0.1"
       d="m 98.793069,439.27974 c -0.806,-1.406 -2.346,-2.038 -3.44,-1.411 -1.095,0.627 -1.329,2.276 -0.524,3.682 0.806,1.406 2.346,2.037 3.441,1.41 1.094,-0.627 1.329,-2.275 0.523,-3.681" /><path
       inkscape:connector-curvature="0"
       id="path28"
       style="fill:#a97c50;fill-opacity:1;fill-rule:nonzero;stroke:none;stroke-width:0.1"
       d="m 97.029069,446.66074 c -1.472,-1.9 -3.862,-2.513 -5.342,-1.368 -1.48,1.145 -1.486,3.614 -0.016,5.514 1.472,1.9 3.863,2.513 5.343,1.368 1.478,-1.145 1.487,-3.613 0.015,-5.514" /><path
       inkscape:connector-curvature="0"
       id="path30"
       style="fill:#a97c50;fill-opacity:1;fill-rule:nonzero;stroke:none;stroke-width:0.1"
       d="m 118.16506,447.31374 c 2.173,-1.854 2.765,-4.725 1.323,-6.416 -1.442,-1.692 -4.371,-1.561 -6.543,0.289 -2.173,1.854 -2.767,4.726 -1.325,6.417 1.441,1.691 4.371,1.563 6.545,-0.29" /><path
       inkscape:connector-curvature="0"
       id="path32"
       style="fill:#a97c50;fill-opacity:1;fill-rule:nonzero;stroke:none;stroke-width:0.1"
       d="m 127.92606,443.31274 c 1.379,-1.176 1.755,-2.998 0.84,-4.071 -0.915,-1.074 -2.774,-0.99 -4.152,0.184 -1.379,1.176 -1.756,2.998 -0.84,4.071 0.914,1.073 2.773,0.992 4.152,-0.184" /><path
       inkscape:connector-curvature="0"
       id="path34"
       style="fill:#8dc63f;fill-opacity:1;fill-rule:nonzero;stroke:none;stroke-width:0.1"
       d="m 144.08106,461.88774 h 0.012 l -0.012,0.187 z" /><path
       inkscape:connector-curvature="0"
       id="path36"
       style="fill:#a97c50;fill-opacity:1;fill-rule:nonzero;stroke:none;stroke-width:0.1"
       d="m 214.67206,443.91374 c -2.096,-3.029 -5.569,-4.257 -7.759,-2.742 -2.189,1.515 -2.263,5.198 -0.167,8.227 2.096,3.03 5.57,4.257 7.759,2.743 2.189,-1.515 2.264,-5.199 0.167,-8.228" /><path
       inkscape:connector-curvature="0"
       id="path38"
       style="fill:#a97c50;fill-opacity:1;fill-rule:nonzero;stroke:none;stroke-width:0.1"
       d="m 169.22906,446.98774 c 1.942,-2.307 2.06,-5.403 0.264,-6.915 -1.796,-1.511 -4.826,-0.866 -6.768,1.441 -1.942,2.308 -2.06,5.404 -0.263,6.915 1.795,1.512 4.824,0.866 6.767,-1.441" /><path
       inkscape:connector-curvature="0"
       id="path40"
       style="fill:#a97c50;fill-opacity:1;fill-rule:nonzero;stroke:none;stroke-width:0.1"
       d="m 177.71506,443.03774 c 1.043,-1.241 1.107,-2.903 0.142,-3.716 -0.965,-0.812 -2.593,-0.466 -3.637,0.774 -1.043,1.24 -1.107,2.904 -0.142,3.717 0.966,0.811 2.593,0.465 3.637,-0.775" /><path
       inkscape:connector-curvature="0"
       id="path42"
       style="fill:#a97c50;fill-opacity:1;fill-rule:nonzero;stroke:none;stroke-width:0.1"
       d="m 202.40306,442.06774 c -0.806,-1.406 -2.345,-2.037 -3.441,-1.411 -1.094,0.628 -1.328,2.276 -0.522,3.682 0.806,1.406 2.346,2.038 3.44,1.411 1.095,-0.628 1.33,-2.276 0.523,-3.682" /><path
       inkscape:connector-curvature="0"
       id="path44"
       style="fill:#a97c50;fill-opacity:1;fill-rule:nonzero;stroke:none;stroke-width:0.1"
       d="m 242.93106,439.27974 c -0.806,-1.406 -2.345,-2.038 -3.441,-1.411 -1.094,0.627 -1.328,2.276 -0.523,3.682 0.807,1.406 2.346,2.037 3.441,1.41 1.095,-0.627 1.329,-2.275 0.523,-3.681" /><path
       inkscape:connector-curvature="0"
       id="path46"
       style="fill:#a97c50;fill-opacity:1;fill-rule:nonzero;stroke:none;stroke-width:0.1"
       d="m 241.16706,446.66074 c -1.472,-1.9 -3.862,-2.513 -5.342,-1.368 -1.479,1.145 -1.486,3.614 -0.016,5.514 1.472,1.9 3.864,2.513 5.342,1.368 1.48,-1.145 1.487,-3.613 0.016,-5.514" /><path
       inkscape:connector-curvature="0"
       id="path48"
       style="fill:#a97c50;fill-opacity:1;fill-rule:nonzero;stroke:none;stroke-width:0.1"
       d="m 262.30406,447.31374 c 2.172,-1.854 2.763,-4.725 1.323,-6.416 -1.442,-1.692 -4.372,-1.561 -6.544,0.289 -2.174,1.854 -2.767,4.726 -1.325,6.417 1.44,1.691 4.371,1.563 6.546,-0.29" /><path
       inkscape:connector-curvature="0"
       id="path50"
       style="fill:#a97c50;fill-opacity:1;fill-rule:nonzero;stroke:none;stroke-width:0.1"
       d="m 272.06506,443.31274 c 1.377,-1.176 1.753,-2.998 0.838,-4.071 -0.914,-1.074 -2.773,-0.99 -4.151,0.184 -1.379,1.176 -1.756,2.998 -0.84,4.071 0.913,1.073 2.774,0.992 4.153,-0.184" /><path
       inkscape:connector-curvature="0"
       id="path52"
       style="fill:#8dc63f;fill-opacity:1;fill-rule:nonzero;stroke:none;stroke-width:0.1"
       d="m 288.21906,461.88774 h 0.012 l -0.012,0.187 z" /><path
       inkscape:connector-curvature="0"
       id="path54"
       style="fill:#a97c50;fill-opacity:1;fill-rule:nonzero;stroke:none;stroke-width:0.09999713"
       d="M 288.20016,466.46774 H 0.03635126 v -21.801 c 1.01084174,-0.082 2.11427834,-0.414 3.18371674,-0.415 3.1702177,-0.005 6.6438179,0.122 9.459257,1.753 3.110021,1.801 3.410403,5.622 7.64056,5.437 2.890834,-0.126 5.099307,-2.315 7.759754,-3.159 3.251013,-1.031 6.609419,-1.234 9.410758,0.531 2.380763,1.5 3.670489,4.261 6.679716,4.771 2.699445,0.458 3.577894,-3.459 6.626219,-3.573 6.25584,-0.244 9.107676,2.451 10.927071,3.346 4.105564,2.019 7.578364,2.902 11.312149,1.42 4.767726,-1.892 0.636964,-9.37 5.606678,-8.837 6.679615,0.716 10.979368,8.394 16.102073,8.599 5.963647,0.238 7.745547,-2.632 11.928307,-3.818 3.98377,-1.129 5.0427,1.912 9.04047,0.66 3.25582,-1.02 5.85567,-4.4 9.50046,-4.438 2.04188,-0.022 2.57185,1.849 9.64144,1.172 3.14882,-0.358 2.35587,-3.349 9.21547,-3.618 1.00995,-0.082 2.20988,-0.245 3.27981,-0.246 3.16982,-0.005 6.64262,0.122 9.45846,1.753 3.11082,1.801 3.4108,5.622 7.64156,5.437 2.89083,-0.126 5.09871,-2.315 7.75855,-3.159 3.25182,-1.031 6.60962,-1.234 9.41046,0.531 2.38187,1.5 3.67079,4.261 6.68062,4.771 2.69884,0.458 3.57779,-3.459 6.62662,-3.573 6.25464,-0.244 9.10747,2.451 10.92637,3.346 4.10476,2.019 7.57856,2.902 11.31235,1.42 4.76672,-1.892 0.63596,-9.37 5.60568,-8.837 6.67961,0.716 10.98036,8.394 16.10307,8.599 5.96366,0.238 7.74555,-2.632 11.92731,-3.818 3.98477,-1.129 5.04371,1.912 9.04048,0.66 3.25682,-1.02 5.85667,-4.4 9.50146,-4.438 2.04088,-0.022 2.57085,1.849 9.64244,1.172 3.14682,-0.358 2.35487,-3.349 9.21447,-3.618 v 0.094 c 1.10394,-0.142 2.50886,-0.34 3.27981,-0.34 3.16982,-0.005 6.64362,0.122 9.45846,1.753 3.10982,1.801 3.4108,5.622 7.64156,5.437 2.88983,-0.126 5.09871,-2.315 7.75855,-3.159 3.25082,-1.031 6.60962,-1.234 9.41146,0.531 2.37986,1.5 3.66979,4.261 6.67862,4.771 2.69984,0.458 3.57879,-3.459 6.62662,-3.573 6.25664,-0.244 9.10947,2.451 10.92737,3.346 4.10476,2.019 7.57856,2.902 11.31235,1.42 4.76772,-1.892 0.63696,-9.37 5.60567,-8.837 6.67962,0.716 10.98037,8.394 16.10208,8.599 5.96365,0.238 7.74655,-2.632 11.92831,-3.818 3.98477,-1.129 5.04271,1.912 9.04048,0.66 3.25681,-1.02 5.85666,-4.4 9.50145,-4.438 2.04089,-0.022 2.56986,1.849 9.64145,1.172 3.14782,-0.358 2.35586,-3.349 9.21447,-3.618 v 21.97 H 288.20016" /><path
       inkscape:connector-curvature="0"
       id="path56"
       style="fill:#7e4a36;fill-opacity:1;fill-rule:nonzero;stroke:none;stroke-width:0.09999714"
       d="m 0.03635126,466.46774 v -6.442 H 432.32887 v 6.442 H 0.03635126" /><path
       inkscape:connector-curvature="0"
       id="path58"
       style="fill:#a97c50;fill-opacity:1;fill-rule:nonzero;stroke:none;stroke-width:0.1"
       d="m 358.81106,443.91374 c -2.097,-3.029 -5.57,-4.257 -7.76,-2.742 -2.189,1.515 -2.264,5.198 -0.168,8.227 2.097,3.03 5.571,4.257 7.76,2.743 2.189,-1.515 2.264,-5.199 0.168,-8.228" /><path
       inkscape:connector-curvature="0"
       id="path60"
       style="fill:#a97c50;fill-opacity:1;fill-rule:nonzero;stroke:none;stroke-width:0.1"
       d="m 313.36606,446.98774 c 1.943,-2.307 2.061,-5.403 0.265,-6.915 -1.796,-1.511 -4.826,-0.866 -6.769,1.441 -1.941,2.308 -2.059,5.404 -0.262,6.915 1.795,1.512 4.825,0.866 6.766,-1.441" /><path
       inkscape:connector-curvature="0"
       id="path62"
       style="fill:#a97c50;fill-opacity:1;fill-rule:nonzero;stroke:none;stroke-width:0.1"
       d="m 321.85306,443.03774 c 1.044,-1.241 1.107,-2.903 0.142,-3.716 -0.966,-0.812 -2.594,-0.466 -3.637,0.774 -1.042,1.24 -1.107,2.904 -0.142,3.717 0.965,0.811 2.594,0.465 3.637,-0.775" /><path
       inkscape:connector-curvature="0"
       id="path64"
       style="fill:#a97c50;fill-opacity:1;fill-rule:nonzero;stroke:none;stroke-width:0.1"
       d="m 346.54106,442.06774 c -0.806,-1.406 -2.346,-2.037 -3.44,-1.411 -1.095,0.628 -1.328,2.276 -0.523,3.682 0.805,1.406 2.346,2.038 3.441,1.411 1.093,-0.628 1.329,-2.276 0.522,-3.682" /><path
       inkscape:connector-curvature="0"
       id="path66"
       style="fill:#a97c50;fill-opacity:1;fill-rule:nonzero;stroke:none;stroke-width:0.1"
       d="m 387.06806,439.27974 c -0.805,-1.406 -2.344,-2.038 -3.441,-1.411 -1.094,0.627 -1.327,2.276 -0.521,3.682 0.804,1.406 2.344,2.037 3.44,1.41 1.095,-0.627 1.329,-2.275 0.522,-3.681" /><path
       inkscape:connector-curvature="0"
       id="path68"
       style="fill:#a97c50;fill-opacity:1;fill-rule:nonzero;stroke:none;stroke-width:0.1"
       d="m 385.30506,446.66074 c -1.473,-1.9 -3.862,-2.513 -5.342,-1.368 -1.48,1.145 -1.485,3.614 -0.017,5.514 1.473,1.9 3.864,2.513 5.344,1.368 1.478,-1.145 1.485,-3.613 0.015,-5.514" /><path
       inkscape:connector-curvature="0"
       id="path70"
       style="fill:#a97c50;fill-opacity:1;fill-rule:nonzero;stroke:none;stroke-width:0.1"
       d="m 406.44106,447.31374 c 2.173,-1.854 2.764,-4.725 1.324,-6.416 -1.444,-1.692 -4.371,-1.561 -6.544,0.289 -2.174,1.854 -2.767,4.726 -1.326,6.417 1.441,1.691 4.373,1.563 6.546,-0.29" /><path
       inkscape:connector-curvature="0"
       id="path72"
       style="fill:#a97c50;fill-opacity:1;fill-rule:nonzero;stroke:none;stroke-width:0.1"
       d="m 416.20206,443.31274 c 1.379,-1.176 1.754,-2.998 0.839,-4.071 -0.914,-1.074 -2.773,-0.99 -4.151,0.184 -1.379,1.176 -1.756,2.998 -0.841,4.071 0.914,1.073 2.773,0.992 4.153,-0.184" /><path
       inkscape:connector-curvature="0"
       id="path74"
       style="fill:#8dc63f;fill-opacity:1;fill-rule:nonzero;stroke:none;stroke-width:0.1"
       d="m 432.35606,461.88774 h 0.013 l -0.013,0.187 z" /><path
       inkscape:connector-curvature="0"
       id="path76"
       style="fill:#8dc63f;fill-opacity:1;fill-rule:nonzero;stroke:none;stroke-width:0.09998743"
       d="m 428.80675,473.00974 c 0.71583,8.36 -5.00874,20.481 -5.00874,20.481 2.3854,-9.613 0,-20.69 0,-20.69 -1.90752,4.18 -3.10022,12.121 -3.10022,12.121 -2.62334,-5.224 -3.1792,-13.793 -3.1792,-13.793 l -2.99625,7.733 -1.21869,-7.315 c -3.10022,5.079 -1.77556,23.199 -1.77556,23.199 -4.16295,-6.897 -5.85752,-20.9 -5.85752,-20.9 -0.95376,7.378 -6.58135,14.212 -6.58135,14.212 2.71931,-9.614 1.57361,-16.302 1.57361,-16.302 l -3.10123,7.106 -2.62334,-7.315 -2.62434,7.315 -3.5771,-8.777 c 0.47788,16.927 -6.12545,25.287 -6.12545,25.287 3.89202,-10.45 -1.02975,-22.571 -1.02975,-22.571 0.47688,5.016 -2.74631,10.522 -2.74631,10.522 -0.12297,-5.361 -3.69407,-9.686 -3.69407,-9.686 -2.62334,8.569 0,17.764 0,17.764 -6.43938,-5.433 -7.63208,-17.764 -7.63208,-17.764 -1.1917,8.778 2.14645,22.153 2.14645,22.153 -5.72355,-5.016 -9.32965,-25.079 -9.32965,-25.079 l -2.3564,8.778 -3.12922,-6.27 c 0.44688,12.394 -5.48862,18.809 -5.48862,18.809 3.78705,-11.076 -2.33541,-20.063 -2.33541,-20.063 -3.80005,3.762 -3.5961,12.957 -3.5961,12.957 -5.00874,-4.388 -4.05498,-13.375 -4.05498,-13.375 l -3.5771,8.569 -3.5781,-8.36 c -0.47789,8.36 3.5781,21.526 3.5781,21.526 -5.72456,-4.388 -10.01748,-22.153 -10.01748,-22.153 0,11.286 -5.66358,19.854 -5.66358,19.854 2.57335,-11.912 0,-18.182 0,-18.182 l -1.01475,5.434 -3.10121,-4.389 -1.08473,7.315 c -2.03849,-2.717 -4.7878,-7.733 -4.7878,-7.733 -2.29543,7.942 2.7723,21.526 2.7723,21.526 -8.3489,-5.851 -8.58684,-23.616 -8.58684,-23.616 0,3.971 -2.14746,11.985 -2.14746,11.985 0,-4.525 -2.62334,-8.85 -2.62334,-8.85 -2.14646,5.016 -2.14646,13.794 -2.14646,13.794 -3.33916,-5.434 -2.86128,-15.466 -2.86128,-15.466 -2.62434,9.196 -2.62434,27.378 -2.62434,27.378 -2.16246,-4.889 -3.07622,-12.792 -3.43913,-19.719 v 0.008 l -3.75707,-7.458 c 0.71582,8.36 -5.00774,20.481 -5.00774,20.481 2.38441,-9.613 0,-20.69 0,-20.69 -1.90851,4.18 -3.10122,12.121 -3.10122,12.121 -2.62333,-5.224 -3.18019,-13.793 -3.18019,-13.793 l -2.99526,7.733 -1.21768,-7.315 c -3.10123,5.079 -1.77756,23.199 -1.77756,23.199 -4.16195,-6.897 -5.85553,-20.9 -5.85553,-20.9 -0.95375,7.378 -6.58234,14.212 -6.58234,14.212 2.72031,-9.614 1.5736,-16.302 1.5736,-16.302 l -3.10122,7.106 -2.62334,-7.315 -2.62334,7.315 -3.5781,-8.777 c 0.47788,16.927 -6.12547,25.287 -6.12547,25.287 3.89202,-10.45 -1.02974,-22.571 -1.02974,-22.571 0.47788,5.016 -2.7463,10.522 -2.7463,10.522 -0.12297,-5.361 -3.69307,-9.686 -3.69307,-9.686 -2.62335,8.569 0,17.764 0,17.764 -6.44039,-5.433 -7.63209,-17.764 -7.63209,-17.764 -1.1927,8.778 2.14546,22.153 2.14546,22.153 -5.72356,-5.016 -9.32965,-25.079 -9.32965,-25.079 l -2.35641,8.778 -3.13021,-6.27 c 0.44788,12.394 -5.48663,18.809 -5.48663,18.809 3.78605,-11.076 -2.33741,-20.063 -2.33741,-20.063 -3.79904,3.762 -3.59509,12.957 -3.59509,12.957 -5.00874,-4.388 -4.05499,-13.375 -4.05499,-13.375 l -3.5781,8.569 -3.5771,-8.36 c -0.47688,8.36 3.5771,21.526 3.5771,21.526 -5.72356,-4.388 -10.01748,-22.153 -10.01748,-22.153 0,11.286 -5.66357,19.854 -5.66357,19.854 2.57335,-11.912 0,-18.182 0,-18.182 l -1.01375,5.434 -3.10122,-4.389 -1.08472,7.315 c -2.0385,-2.717 -4.7878,-7.733 -4.7878,-7.733 -2.29443,7.942 2.7723,21.526 2.7723,21.526 -8.3479,-5.851 -8.58684,-23.616 -8.58684,-23.616 0,3.971 -2.14647,11.985 -2.14647,11.985 0,-4.525 -2.62333,-8.85 -2.62333,-8.85 -2.14747,5.016 -2.14747,13.794 -2.14747,13.794 -3.33916,-5.434 -2.86227,-15.466 -2.86227,-15.466 -2.62334,9.196 -2.62334,27.378 -2.62334,27.378 -2.25144,-5.088 -3.14822,-13.442 -3.48113,-20.56 v 0.01 l -3.71407,-6.619 c 0.71582,8.36 -5.00874,20.481 -5.00874,20.481 2.38541,-9.613 0,-20.69 0,-20.69 -1.90751,4.18 -3.10022,12.121 -3.10022,12.121 -2.62434,-5.224 -3.18021,-13.793 -3.18021,-13.793 l -2.99524,7.733 -1.21869,-7.315 c -3.10022,5.079 -1.77655,23.199 -1.77655,23.199 -4.16295,-6.897 -5.85553,-20.9 -5.85553,-20.9 -0.95477,7.378 -6.58335,14.212 -6.58335,14.212 2.71932,-9.614 1.57461,-16.302 1.57461,-16.302 l -3.10122,7.106 -2.62335,-7.315 -2.62333,7.315 -3.5781,-8.777 c 0.47688,16.927 -6.126453,25.287 -6.126453,25.287 3.891022,-10.45 -1.028742,-22.571 -1.028742,-22.571 0.47688,5.016 -2.74731,10.522 -2.74731,10.522 -0.123969,-5.361 -3.693071,-9.686 -3.693071,-9.686 -2.623341,8.569 0,17.764 0,17.764 -6.439382,-5.433 -7.632082,-17.764 -7.632082,-17.764 -1.1927,8.778 2.146461,22.153 2.146461,22.153 -5.724562,-5.016 -9.330655,-25.079 -9.330655,-25.079 l -2.356408,8.778 -3.130214,-6.27 c 0.447887,12.394 -5.486521,18.809 -5.486521,18.809 3.786149,-11.076 -2.337712,-20.063 -2.337712,-20.063 -3.799046,3.762 -3.594796,12.957 -3.594796,12.957 -5.008842,-4.388 -4.054782,-13.375 -4.054782,-13.375 l -3.577701,8.569 -3.577601,-8.36 c -0.47678,8.36 3.577601,21.526 3.577601,21.526 -5.724261,-4.388 -10.017382,-22.153 -10.017382,-22.153 0,11.286 -5.664177,19.854 -5.664177,19.854 2.573154,-11.912 0,-18.182 0,-18.182 l -1.014645,5.434 -3.10032,-4.389 -1.084528,7.315 c -2.038587,-2.717 -4.788197,-7.733 -4.788197,-7.733 -2.294423,7.942 2.771504,21.526 2.771504,21.526 -8.347502,-5.851 -8.586142,-23.616 -8.586142,-23.616 0,3.971 -2.146261,11.985 -2.146261,11.985 0,-4.525 -2.62394,-8.85 -2.62394,-8.85 -2.1463614,5.016 -2.1463614,13.794 -2.1463614,13.794 -3.3394607,-5.434 -2.8625805,-15.466 -2.8625805,-15.466 -2.6231409,9.196 -2.6231409,27.378 -2.6231409,27.378 -4.53206095,-10.24 -3.57800072,-33.711 -3.57800072,-33.711 H 432.32887 v 13.439 l -3.52212,-6.897" /></g></svg>