<?xml version="1.0" encoding="UTF-8" standalone="no"?>
<svg
   xmlns:dc="http://purl.org/dc/elements/1.1/"
   xmlns:cc="http://creativecommons.org/ns#"
   xmlns:rdf="http://www.w3.org/1999/02/22-rdf-syntax-ns#"
   xmlns:svg="http://www.w3.org/2000/svg"
   xmlns="http://www.w3.org/2000/svg"
   xmlns:sodipodi="http://sodipodi.sourceforge.net/DTD/sodipodi-0.dtd"
   xmlns:inkscape="http://www.inkscape.org/namespaces/inkscape"
   version="1.1"
   x="0px"
   y="0px"
   viewBox="0 0 47.999401 47.999226"
   enable-background="new 0 0 48 48"
   xml:space="preserve"
   id="svg88"
   sodipodi:docname="noun_sun_130344.svg"
   width="47.999401"
   height="47.999226"
   inkscape:version="0.92.2 2405546, 2018-03-11"><metadata
     id="metadata94"><rdf:RDF><cc:Work
         rdf:about=""><dc:format>image/svg+xml</dc:format><dc:type
           rdf:resource="http://purl.org/dc/dcmitype/StillImage" /><dc:title></dc:title></cc:Work></rdf:RDF></metadata><defs
     id="defs92" /><sodipodi:namedview
     pagecolor="#ffffff"
     bordercolor="#666666"
     borderopacity="1"
     objecttolerance="10"
     gridtolerance="10"
     guidetolerance="10"
     inkscape:pageopacity="0"
     inkscape:pageshadow="2"
     inkscape:window-width="1920"
     inkscape:window-height="1010"
     id="namedview90"
     showgrid="false"
     fit-margin-top="0"
     fit-margin-left="0"
     fit-margin-right="0"
     fit-margin-bottom="0"
     inkscape:zoom="3.9333333"
     inkscape:cx="20.31276"
     inkscape:cy="18"
     inkscape:window-x="0"
     inkscape:window-y="0"
     inkscape:window-maximized="1"
     inkscape:current-layer="svg88" /><g
     id="g82"
     transform="translate(-7.9930656e-4,-7.7272191e-4)"><path
       d="M 24,9.63 C 16.077,9.63 9.631,16.076 9.631,24 9.631,31.924 16.077,38.371 24,38.371 31.924,38.371 38.371,31.924 38.371,24 38.371,16.076 31.924,9.63 24,9.63 Z"
       id="path2"
       inkscape:connector-curvature="0" /><g
       id="g28"><g
         id="g14"><path
           d="m 24,8.287 c -0.553,0 -1,-0.448 -1,-1 V 2.38 c 0,-0.552 0.447,-1 1,-1 0.553,0 1,0.448 1,1 v 4.907 c 0,0.552 -0.447,1 -1,1 z"
           id="path4"
           inkscape:connector-curvature="0" /><path
           d="m 24,46.621 c -0.553,0 -1,-0.448 -1,-1 v -4.908 c 0,-0.552 0.447,-1 1,-1 0.553,0 1,0.448 1,1 v 4.908 c 0,0.552 -0.447,1 -1,1 z"
           id="path6"
           inkscape:connector-curvature="0" /><g
           id="g12"><path
             d="M 27.983,8.769 C 27.904,8.769 27.824,8.76 27.744,8.74 27.208,8.608 26.88,8.067 27.012,7.531 l 1.662,-6.769 c 0.131,-0.537 0.676,-0.862 1.209,-0.733 0.536,0.132 0.864,0.673 0.732,1.209 l -1.662,6.769 c -0.111,0.457 -0.52,0.762 -0.97,0.762 z"
             id="path8"
             inkscape:connector-curvature="0" /><path
             d="m 18.356,48 c -0.079,0 -0.159,-0.009 -0.239,-0.028 -0.536,-0.132 -0.864,-0.673 -0.733,-1.21 l 1.66,-6.769 c 0.133,-0.536 0.675,-0.86 1.21,-0.733 0.536,0.132 0.864,0.674 0.733,1.21 l -1.66,6.769 C 19.215,47.695 18.806,48 18.356,48 Z"
             id="path10"
             inkscape:connector-curvature="0" /></g></g><g
         id="g26"><path
           d="m 45.619,25 h -4.906 c -0.553,0 -1,-0.447 -1,-1 0,-0.553 0.447,-1 1,-1 h 4.906 c 0.553,0 1,0.448 1,1 0,0.552 -0.447,1 -1,1 z"
           id="path16"
           inkscape:connector-curvature="0" /><path
           d="M 7.287,25 H 2.381 c -0.553,0 -1,-0.447 -1,-1 0,-0.553 0.447,-1 1,-1 h 4.906 c 0.553,0 1,0.448 1,1 0,0.552 -0.447,1 -1,1 z"
           id="path18"
           inkscape:connector-curvature="0" /><g
           id="g24"><path
             d="m 47.001,30.646 c -0.079,0 -0.159,-0.01 -0.239,-0.029 l -6.77,-1.662 c -0.536,-0.132 -0.864,-0.674 -0.732,-1.209 0.131,-0.537 0.676,-0.863 1.209,-0.733 l 6.77,1.662 c 0.536,0.132 0.864,0.673 0.732,1.21 -0.112,0.456 -0.521,0.761 -0.97,0.761 z"
             id="path20"
             inkscape:connector-curvature="0" /><path
             d="m 7.771,21.017 c -0.079,0 -0.159,-0.009 -0.239,-0.029 L 0.762,19.327 C 0.226,19.195 -0.102,18.654 0.03,18.118 0.161,17.581 0.707,17.257 1.239,17.385 l 6.77,1.661 c 0.536,0.132 0.864,0.673 0.732,1.209 -0.112,0.456 -0.521,0.762 -0.97,0.762 z"
             id="path22"
             inkscape:connector-curvature="0" /></g></g></g><g
       id="g54"><g
         id="g40"><path
           d="m 32.347,10.521 c -0.17,0 -0.341,-0.043 -0.499,-0.134 C 31.37,10.111 31.205,9.5 31.482,9.021 L 33.933,4.77 c 0.275,-0.48 0.886,-0.643 1.366,-0.367 0.478,0.276 0.643,0.887 0.366,1.366 l -2.451,4.251 c -0.185,0.322 -0.522,0.501 -0.867,0.501 z"
           id="path30"
           inkscape:connector-curvature="0" /><path
           d="m 13.2,43.73 c -0.169,0 -0.341,-0.043 -0.498,-0.135 -0.479,-0.275 -0.644,-0.887 -0.367,-1.365 l 2.451,-4.252 c 0.275,-0.479 0.888,-0.643 1.365,-0.366 0.479,0.276 0.644,0.888 0.367,1.366 l -2.451,4.251 C 13.883,43.551 13.546,43.73 13.2,43.73 Z"
           id="path32"
           inkscape:connector-curvature="0" /><g
           id="g38"><path
             d="m 35.559,12.929 c -0.249,0 -0.498,-0.092 -0.691,-0.278 -0.399,-0.382 -0.413,-1.015 -0.031,-1.414 l 4.82,-5.034 c 0.385,-0.399 1.018,-0.412 1.414,-0.031 0.399,0.382 0.413,1.015 0.031,1.414 l -4.82,5.034 c -0.198,0.205 -0.461,0.309 -0.723,0.309 z"
             id="path34"
             inkscape:connector-curvature="0" /><path
             d="M 7.621,42.105 C 7.372,42.105 7.123,42.013 6.93,41.828 6.531,41.446 6.517,40.813 6.899,40.414 l 4.82,-5.033 c 0.382,-0.4 1.017,-0.413 1.414,-0.031 0.399,0.382 0.413,1.015 0.031,1.414 l -4.82,5.033 c -0.197,0.205 -0.46,0.308 -0.723,0.308 z"
             id="path36"
             inkscape:connector-curvature="0" /></g></g><g
         id="g52"><path
           d="m 42.729,35.8 c -0.169,0 -0.341,-0.043 -0.498,-0.134 L 37.979,33.215 C 37.5,32.94 37.335,32.328 37.612,31.85 c 0.274,-0.478 0.886,-0.645 1.365,-0.367 l 4.252,2.451 c 0.479,0.275 0.644,0.887 0.367,1.365 -0.184,0.321 -0.521,0.501 -0.867,0.501 z"
           id="path42"
           inkscape:connector-curvature="0" /><path
           d="m 9.521,16.652 c -0.17,0 -0.341,-0.043 -0.499,-0.134 L 4.772,14.067 C 4.293,13.791 4.129,13.18 4.406,12.701 4.682,12.222 5.291,12.058 5.772,12.334 l 4.25,2.451 c 0.479,0.276 0.643,0.887 0.366,1.366 -0.186,0.322 -0.522,0.501 -0.867,0.501 z"
           id="path44"
           inkscape:connector-curvature="0" /><g
           id="g50"><path
             d="m 41.105,41.38 c -0.249,0 -0.498,-0.093 -0.691,-0.278 l -5.033,-4.82 C 34.982,35.9 34.968,35.266 35.35,34.868 c 0.385,-0.398 1.017,-0.412 1.414,-0.03 l 5.033,4.821 c 0.399,0.381 0.413,1.015 0.031,1.414 -0.197,0.204 -0.46,0.307 -0.723,0.307 z"
             id="path46"
             inkscape:connector-curvature="0" /><path
             d="m 11.93,13.442 c -0.249,0 -0.498,-0.092 -0.691,-0.278 L 6.203,8.343 C 5.804,7.961 5.79,7.329 6.172,6.93 6.555,6.53 7.189,6.518 7.586,6.899 l 5.035,4.821 c 0.399,0.382 0.413,1.015 0.031,1.414 -0.196,0.204 -0.46,0.308 -0.722,0.308 z"
             id="path48"
             inkscape:connector-curvature="0" /></g></g></g><g
       id="g80"><g
         id="g66"><path
           d="m 38.376,16.475 c -0.342,0 -0.675,-0.175 -0.861,-0.49 -0.281,-0.475 -0.125,-1.088 0.351,-1.37 l 4.221,-2.502 c 0.475,-0.282 1.089,-0.125 1.37,0.351 0.281,0.475 0.125,1.088 -0.351,1.37 l -4.221,2.502 c -0.16,0.094 -0.335,0.139 -0.509,0.139 z"
           id="path56"
           inkscape:connector-curvature="0" /><path
           d="m 5.405,36.027 c -0.342,0 -0.674,-0.175 -0.861,-0.49 -0.281,-0.475 -0.125,-1.088 0.351,-1.37 l 4.221,-2.503 c 0.474,-0.281 1.087,-0.125 1.37,0.35 0.281,0.476 0.125,1.09 -0.351,1.371 l -4.221,2.503 c -0.16,0.094 -0.335,0.139 -0.509,0.139 z"
           id="path58"
           inkscape:connector-curvature="0" /><g
           id="g64"><path
             d="m 39.992,20.148 c -0.43,0 -0.826,-0.278 -0.957,-0.71 -0.16,-0.528 0.139,-1.087 0.667,-1.247 l 6.672,-2.023 c 0.532,-0.161 1.087,0.139 1.247,0.667 0.16,0.528 -0.139,1.087 -0.667,1.247 l -6.672,2.023 c -0.096,0.029 -0.194,0.043 -0.29,0.043 z"
             id="path60"
             inkscape:connector-curvature="0" /><path
             d="m 1.338,31.877 c -0.43,0 -0.826,-0.279 -0.957,-0.711 -0.16,-0.528 0.139,-1.086 0.667,-1.247 l 6.67,-2.023 c 0.531,-0.161 1.087,0.139 1.247,0.667 0.16,0.528 -0.139,1.086 -0.667,1.247 l -6.67,2.023 c -0.097,0.029 -0.194,0.044 -0.29,0.044 z"
             id="path62"
             inkscape:connector-curvature="0" /></g></g><g
         id="g78"><path
           d="m 35.028,43.597 c -0.342,0 -0.675,-0.175 -0.861,-0.49 l -2.502,-4.221 c -0.281,-0.476 -0.125,-1.089 0.351,-1.37 0.478,-0.281 1.09,-0.125 1.37,0.351 l 2.502,4.221 c 0.281,0.476 0.125,1.089 -0.351,1.37 -0.16,0.094 -0.336,0.139 -0.509,0.139 z"
           id="path68"
           inkscape:connector-curvature="0" /><path
           d="m 15.478,10.625 c -0.342,0 -0.674,-0.175 -0.861,-0.49 L 12.113,5.914 c -0.281,-0.475 -0.125,-1.088 0.351,-1.37 0.471,-0.283 1.087,-0.125 1.37,0.35 l 2.504,4.221 c 0.281,0.475 0.125,1.088 -0.351,1.37 -0.16,0.095 -0.336,0.14 -0.509,0.14 z"
           id="path70"
           inkscape:connector-curvature="0" /><g
           id="g76"><path
             d="m 30.877,47.664 c -0.43,0 -0.826,-0.279 -0.957,-0.711 l -2.023,-6.67 c -0.16,-0.528 0.139,-1.086 0.667,-1.247 0.53,-0.161 1.087,0.139 1.247,0.667 l 2.023,6.67 c 0.16,0.528 -0.139,1.086 -0.667,1.247 -0.097,0.029 -0.194,0.044 -0.29,0.044 z"
             id="path72"
             inkscape:connector-curvature="0" /><path
             d="m 19.148,9.008 c -0.43,0 -0.826,-0.278 -0.957,-0.71 L 16.166,1.629 c -0.16,-0.528 0.138,-1.087 0.666,-1.248 0.537,-0.16 1.088,0.139 1.248,0.667 l 2.025,6.669 c 0.16,0.528 -0.138,1.087 -0.666,1.248 -0.097,0.029 -0.195,0.043 -0.291,0.043 z"
             id="path74"
             inkscape:connector-curvature="0" /></g></g></g></g></svg>