<?xml version="1.0" encoding="UTF-8" standalone="no"?>
<svg
   xmlns:dc="http://purl.org/dc/elements/1.1/"
   xmlns:cc="http://creativecommons.org/ns#"
   xmlns:rdf="http://www.w3.org/1999/02/22-rdf-syntax-ns#"
   xmlns:svg="http://www.w3.org/2000/svg"
   xmlns="http://www.w3.org/2000/svg"
   xmlns:sodipodi="http://sodipodi.sourceforge.net/DTD/sodipodi-0.dtd"
   xmlns:inkscape="http://www.inkscape.org/namespaces/inkscape"
   version="1.1"
   x="0px"
   y="0px"
   viewBox="0 0 67.492 100"
   enable-background="new 0 0 67.492 100"
   xml:space="preserve"
   id="svg8"
   sodipodi:docname="noun_Tree_173.svg"
   width="67.491997"
   height="100"
   inkscape:version="0.92.2 2405546, 2018-03-11"><metadata
     id="metadata14"><rdf:RDF><cc:Work
         rdf:about=""><dc:format>image/svg+xml</dc:format><dc:type
           rdf:resource="http://purl.org/dc/dcmitype/StillImage" /><dc:title></dc:title></cc:Work></rdf:RDF></metadata><defs
     id="defs12" /><sodipodi:namedview
     pagecolor="#ffffff"
     bordercolor="#666666"
     borderopacity="1"
     objecttolerance="10"
     gridtolerance="10"
     guidetolerance="10"
     inkscape:pageopacity="0"
     inkscape:pageshadow="2"
     inkscape:window-width="1920"
     inkscape:window-height="1010"
     id="namedview10"
     showgrid="false"
     fit-margin-top="0"
     fit-margin-left="0"
     fit-margin-right="0"
     fit-margin-bottom="0"
     inkscape:zoom="3.776"
     inkscape:cx="25.209256"
     inkscape:cy="52.556914"
     inkscape:window-x="0"
     inkscape:window-y="0"
     inkscape:window-maximized="1"
     inkscape:current-layer="svg8" /><path
     d="M 67.339,82.301 52.818,57.881 c -0.159,-0.27 -0.376,-1.013 0.462,-1.148 l 3.616,-0.37 c 0.539,-0.007 0.943,-0.573 0.943,-1.135 0,-0.201 -0.056,-0.396 -0.152,-0.563 L 46.012,34.632 c -0.236,-0.363 -0.128,-0.9 0.369,-0.976 l 2.113,-0.358 c 0.533,-0.089 0.844,-0.723 0.75,-1.278 -0.023,-0.126 -0.067,-0.253 -0.125,-0.358 L 40.695,17.068 c -0.164,-0.312 0.031,-0.678 0.311,-0.763 l 1.102,-0.333 c 0.518,-0.156 0.75,-0.825 0.586,-1.366 -0.023,-0.085 -0.061,-0.168 -0.104,-0.241 L 34.564,0.47 C 34.392,0.187 34.1,0 33.746,0 33.392,0 33.1,0.187 32.929,0.47 l -8.025,13.896 c -0.042,0.072 -0.075,0.155 -0.104,0.24 -0.163,0.541 0.069,1.209 0.585,1.366 l 1.103,0.333 c 0.28,0.085 0.477,0.451 0.312,0.763 l -8.425,14.595 c -0.058,0.104 -0.101,0.232 -0.124,0.356 -0.094,0.557 0.22,1.189 0.749,1.28 l 2.113,0.356 c 0.497,0.076 0.604,0.613 0.369,0.977 L 9.805,54.664 c -0.096,0.166 -0.153,0.361 -0.153,0.563 0,0.561 0.405,1.128 0.942,1.135 l 3.618,0.37 c 0.836,0.136 0.62,0.879 0.463,1.148 L 0.153,82.301 C 0.056,82.467 0,82.662 0,82.864 0,83.425 0.413,83.994 0.948,84 h 28.798 v 16 h 8 V 84 h 28.797 c 0.538,-0.006 0.949,-0.574 0.949,-1.134 0,-0.203 -0.055,-0.398 -0.153,-0.565 z"
     id="path2"
     inkscape:connector-curvature="0" /></svg>