<?xml version="1.0" encoding="UTF-8" standalone="no"?>
<svg
   xmlns:dc="http://purl.org/dc/elements/1.1/"
   xmlns:cc="http://creativecommons.org/ns#"
   xmlns:rdf="http://www.w3.org/1999/02/22-rdf-syntax-ns#"
   xmlns:svg="http://www.w3.org/2000/svg"
   xmlns="http://www.w3.org/2000/svg"
   xmlns:sodipodi="http://sodipodi.sourceforge.net/DTD/sodipodi-0.dtd"
   xmlns:inkscape="http://www.inkscape.org/namespaces/inkscape"
   version="1.1"
   x="0px"
   y="0px"
   viewBox="0 0 94.719002 99.714996"
   enable-background="new 0 0 100 100"
   xml:space="preserve"
   id="svg8"
   sodipodi:docname="noun_Tree_10225.svg"
   width="94.719002"
   height="99.714996"
   inkscape:version="0.92.2 2405546, 2018-03-11"><metadata
     id="metadata14"><rdf:RDF><cc:Work
         rdf:about=""><dc:format>image/svg+xml</dc:format><dc:type
           rdf:resource="http://purl.org/dc/dcmitype/StillImage" /><dc:title></dc:title></cc:Work></rdf:RDF></metadata><defs
     id="defs12" /><sodipodi:namedview
     pagecolor="#ffffff"
     bordercolor="#666666"
     borderopacity="1"
     objecttolerance="10"
     gridtolerance="10"
     guidetolerance="10"
     inkscape:pageopacity="0"
     inkscape:pageshadow="2"
     inkscape:window-width="1920"
     inkscape:window-height="1010"
     id="namedview10"
     showgrid="false"
     fit-margin-top="0"
     fit-margin-left="0"
     fit-margin-right="0"
     fit-margin-bottom="0"
     inkscape:zoom="5.3400704"
     inkscape:cx="63.223518"
     inkscape:cy="51.074798"
     inkscape:window-x="0"
     inkscape:window-y="0"
     inkscape:window-maximized="1"
     inkscape:current-layer="svg8" /><polygon
     points="37.433,73.182 32.464,77.877 25.286,76.887 22.443,75.508 18.48,76.283 13.958,73.656 12.762,68.883 5.989,66.764 2.5,63.017 3.39,49.879 8.343,47.639 14.158,40.015 17.009,39.854 16.269,28.859 22.816,19.685 27.08,17.488 28.289,17.519 31.172,15.076 34.198,15.324 34.618,9.562 37.978,6.246 44.827,5.384 48.617,1.421 54.562,0 60.074,2.24 62.564,10.116 66.837,12.19 66.865,15.042 73.944,17.445 76.916,20.805 77.39,25.069 80.362,28.17 81.181,31.4 79.072,35.726 81.956,38.12 82.479,40.562 85.617,41.092 88.848,44.495 89.02,46.218 90.355,46.993 91.906,52.248 92.05,52.679 95.97,55.909 97.219,62.672 93.443,67.022 90.068,69.306 88.13,74.604 83.952,76.973 80.248,75.163 71.978,77.23 66.723,74.646 64.25,72.575 58.28,75.422 53,74.97 54,99.715 46,99.715 47,75.217 45.539,75.217 40,75.077 "
     id="polygon2"
     transform="translate(-2.5)" /></svg>