<?xml version="1.0" encoding="UTF-8" standalone="no"?>
<svg
   xmlns:dc="http://purl.org/dc/elements/1.1/"
   xmlns:cc="http://creativecommons.org/ns#"
   xmlns:rdf="http://www.w3.org/1999/02/22-rdf-syntax-ns#"
   xmlns:svg="http://www.w3.org/2000/svg"
   xmlns="http://www.w3.org/2000/svg"
   xmlns:sodipodi="http://sodipodi.sourceforge.net/DTD/sodipodi-0.dtd"
   xmlns:inkscape="http://www.inkscape.org/namespaces/inkscape"
   version="1.1"
   x="0px"
   y="0px"
   viewBox="0 0 453.53193 650.79999"
   enable-background="new 0 0 1190.6 841.9"
   xml:space="preserve"
   id="svg8"
   sodipodi:docname="tree2.svg"
   inkscape:version="0.92.2 2405546, 2018-03-11"
   width="453.53192"
   height="650.79999"><metadata
     id="metadata14"><rdf:RDF><cc:Work
         rdf:about=""><dc:format>image/svg+xml</dc:format><dc:type
           rdf:resource="http://purl.org/dc/dcmitype/StillImage" /><dc:title></dc:title></cc:Work></rdf:RDF></metadata><defs
     id="defs12" /><sodipodi:namedview
     pagecolor="#ffffff"
     bordercolor="#666666"
     borderopacity="1"
     objecttolerance="10"
     gridtolerance="10"
     guidetolerance="10"
     inkscape:pageopacity="0"
     inkscape:pageshadow="2"
     inkscape:window-width="1920"
     inkscape:window-height="1010"
     id="namedview10"
     showgrid="false"
     inkscape:zoom="0.31714398"
     inkscape:cx="-575.987"
     inkscape:cy="90.346015"
     inkscape:window-x="0"
     inkscape:window-y="0"
     inkscape:window-maximized="1"
     inkscape:current-layer="svg8"
     fit-margin-top="0"
     fit-margin-left="0"
     fit-margin-right="0"
     fit-margin-bottom="0" /><path
     d="m 443.41996,439.3 c 1.4,-1.4 2.4,-3 2.5,-5.1 0.2,-5 -4.8,-7.8 -8.7,-9.6 -4.6,-2.2 -9.5,-3.5 -14.3,-4.8 -1.4,-1.2 -2.7,-2.2 -3.9,-3.1 1,-0.1 2.1,-0.2 3.1,-0.4 3.5,-0.6 5.1,-5.4 3.3,-8.2 -3.3,-5.1 -7.6,-8.3 -12.6,-10.8 0,-3.4 -2.1,-7 -5.9,-8.9 -5.3,-2.6 -11.8,-1.9 -17.5,-1.8 -0.3,0 -0.5,0 -0.8,0 -3,-1.5 -6,-3 -8.9,-4.8 -0.8,-0.9 -1.6,-1.7 -2.4,-2.5 0.8,0.3 1.6,0.7 2.5,1 4.3,1.5 7,-2.2 6.8,-5.7 3.6,-2.7 4.4,-6.9 3.7,-11.2 7,0.5 12.7,-2.3 10.1,-12.2 -2.8,-10.6 -9.4,-20.1 -17,-28.7 3.1,-1.8 5,-5.5 3.6,-9.2 -0.4,-0.9 -0.9,-1.8 -1.6,-2.5 6.7,-1.2 9.8,-3.7 10.4,-7.1 22.5,-5.7 -5.8,-30.4 -16.8,-39.3 0.2,-0.3 0.5,-0.4 0.7,-0.7 3.4,-4.7 0.3,-9.6 -3.3,-13 -5.7,-5.2 -13,-7.8 -20.1,-10.6 -2.9,-1.2 -5.8,-2.5 -8.5,-3.8 2.9,-0.1 5.6,-1.9 5.5,-5.3 -0.1,-3.6 -0.8,-6.9 -2.1,-9.9 1.6,0 3.2,-0.4 4.9,-1.5 4.2,-2.8 5.6,-8.2 4.4,-12.9 -2.1,-8.7 -10.6,-16.6 -19.1,-22.9 6.8,-0.9 9.3,-3.5 9.3,-6.8 24.9,-4.2 -14.4,-33 -14.4,-33 -5.1,-3.7 -10.4,-8.3 -15.7,-13.5 1.8,-0.9 3.3,-2.2 4.2,-4.4 2,-5 -1.2,-8.8 -4.9,-11.9 -12.3,-10.2 -24.4,-20.200001 -35.9,-30.900001 2.6,-0.9 4.8,-2.7 5.5,-6 1.3,-6.2 -5.3,-10.2 -9.2,-13.7 -9.8,-8.6 -21.5,-18.3 -31.2,-29 -5.9,-9.8 -9.9,-16 -9.9,-16 C 235.51996,9.5 232.31996,3.6 226.71996,0 c -5.6,3.6 -8.9,9.5 -12.5,18.599999 0,0 -4,6.3 -9.9,16 -9.7,10.7 -21.4,20.4 -31.2,29 -3.9,3.4 -10.5,7.4 -9.2,13.7 0.7,3.3 2.8,5.1 5.5,6 -11.5,10.8 -23.5,20.700001 -35.9,30.900001 -3.7,3.1 -6.9,6.8 -4.9,11.9 0.9,2.2 2.4,3.5 4.2,4.4 -5.3,5.2 -10.6,9.8 -15.7,13.5 0,0 -39.400001,28.8 -14.4,33 0,3.3 2.5,5.9 9.3,6.8 -8.5,6.3 -17.000001,14.2 -19.100001,22.9 -1.1,4.7 0.2,10.2 4.4,12.9 1.699996,1.1 3.300001,1.4 4.900001,1.5 -1.3,3 -2,6.3 -2.1,9.9 -0.1,3.4 2.6,5.2 5.5,5.3 -2.8,1.4 -5.6,2.7 -8.500001,3.8 -7,2.8 -14.4,5.4 -20.1,10.6 -3.7,3.4 -6.7,8.3 -3.3,13 0.2,0.3 0.5,0.5 0.7,0.7 -11.1,8.9 -39.3,33.6 -16.8,39.3 0.6,3.3 3.8,5.9 10.4,7.1 -0.7,0.8 -1.3,1.6 -1.6,2.5 -1.4,3.7 0.5,7.4 3.6,9.2 -7.6,8.6 -14.2,18.1 -17,28.7 -2.6,9.9 3.1,12.7 10.1,12.2 -0.7,4.3 0.2,8.5 3.7,11.2 -0.2,3.5 2.5,7.2 6.8,5.7 0.9,-0.3 1.7,-0.7 2.5,-1 -0.8,0.9 -1.6,1.7 -2.4,2.5 -2.9,1.7 -5.9,3.3 -8.9,4.8 -0.3,0 -0.5,0 -0.8,0 -5.7,-0.1 -12.2,-0.7 -17.5,1.8 -3.8,1.8 -5.9,5.4 -5.9,8.9 -5,2.5 -9.3,5.7 -12.6,10.8 -1.8,2.8 -0.2,7.6 3.3,8.2 1.1,0.2 2.1,0.3 3.1,0.4 -1.1,0.9 -2.4,1.9 -3.9,3.1 -4.9,1.4 -9.7,2.6 -14.3,4.8 -3.8,1.9 -8.8999998,4.6 -8.6999998,9.6 0.1,2.1 1.1,3.7 2.4999998,5.1 -10.09999984,11.8 -15.7999998,24.2 -1.0999996,29.1 1.5999996,4.1 6.4999996,7 16.0999996,8.2 -2.5,2.6 -4.2,5.7 -2.9,9.5 1.4,4.2 4.6,5.3 8.1,5.2 -12.8,20.2 -26.1999998,47.4 -8.1,50.3 1.9,6.6 9.5,9.3 26.7,4.3 0.7,3.8 3.5,6.2 9.6,5.8 7.8,-0.5 15.3,-8.7 21,-13.4 1.9,-1.5 4.1,-3 6.4,-4.4 -2,3.3 -3.9,6.8 -4.7,10.1 -1.3,5.8 1.5,9.1 5.4,10 -1.8,15.3 -0.8,28.9 8.6,27.5 2.6,9.5 10.600001,10.8 29.200001,-8.1 1.3,1.2 3,2.1 5.2,2.4 7.9,1 12.7,-7.3 16.3,-13 2.1,-3.5 4,-7.1 5.8,-10.8 1.1,19.2 4.5,40.7 13.9,38.9 5.1,11.8 14.5,11 31.4,-25 1.2,4.3 6,8.2 9.6,9.7 0.1,0.3 3,0.5 3,0.8 v 74.4 h 43.7 v -74.4 c 0,-0.3 -1.5,-0.5 -1.4,-0.8 3.6,-1.5 4.8,-5.4 6.1,-9.7 16.9,36 25.8,36.8 30.9,25 9.4,1.9 12.5,-19.7 13.7,-38.9 1.7,3.7 3.5,7.3 5.7,10.8 3.5,5.7 8.3,14.1 16.2,13 2.2,-0.3 3.8,-1.2 5.2,-2.4 18.6,18.9 26.6,17.6 29.2,8.1 9.4,1.4 10.4,-12.2 8.6,-27.5 3.9,-1 6.7,-4.3 5.4,-10 -0.8,-3.4 -2.7,-6.8 -4.7,-10.1 2.3,1.4 4.5,2.9 6.4,4.4 5.7,4.6 13.2,12.9 21,13.4 6.1,0.4 8.9,-2 9.6,-5.8 17.1,5 24.7,2.3 26.7,-4.3 18.2,-2.9 4.7,-30.2 -8.1,-50.3 3.5,0.1 6.6,-1 8.1,-5.2 1.3,-3.8 -0.4,-6.9 -2.9,-9.5 9.6,-1.2 14.6,-4.1 16.1,-8.2 14.2,-4.8 8.5,-17.3 -1.6,-29.1 z"
     id="path2"
     inkscape:connector-curvature="0" /></svg>