<?xml version="1.0" encoding="UTF-8" standalone="no"?>
<svg
   xmlns:dc="http://purl.org/dc/elements/1.1/"
   xmlns:cc="http://creativecommons.org/ns#"
   xmlns:rdf="http://www.w3.org/1999/02/22-rdf-syntax-ns#"
   xmlns:svg="http://www.w3.org/2000/svg"
   xmlns="http://www.w3.org/2000/svg"
   xmlns:sodipodi="http://sodipodi.sourceforge.net/DTD/sodipodi-0.dtd"
   xmlns:inkscape="http://www.inkscape.org/namespaces/inkscape"
   version="1.1"
   x="0px"
   y="0px"
   viewBox="0 0 38.667999 38.667"
   enable-background="new 0 0 64 64"
   xml:space="preserve"
   id="svg26"
   sodipodi:docname="tyre.svg"
   width="38.667999"
   height="38.667"
   inkscape:version="0.92.2 2405546, 2018-03-11"><metadata
     id="metadata32"><rdf:RDF><cc:Work
         rdf:about=""><dc:format>image/svg+xml</dc:format><dc:type
           rdf:resource="http://purl.org/dc/dcmitype/StillImage" /><dc:title></dc:title></cc:Work></rdf:RDF></metadata><defs
     id="defs30" /><sodipodi:namedview
     pagecolor="#ffffff"
     bordercolor="#666666"
     borderopacity="1"
     objecttolerance="10"
     gridtolerance="10"
     guidetolerance="10"
     inkscape:pageopacity="0"
     inkscape:pageshadow="2"
     inkscape:window-width="1366"
     inkscape:window-height="700"
     id="namedview28"
     showgrid="false"
     fit-margin-top="0"
     fit-margin-left="0"
     fit-margin-right="0"
     fit-margin-bottom="0"
     inkscape:zoom="2.95"
     inkscape:cx="19.334"
     inkscape:cy="11.333"
     inkscape:window-x="0"
     inkscape:window-y="0"
     inkscape:window-maximized="1"
     inkscape:current-layer="svg26" /><path
     d="m 38.228,21.332 h 0.44 l -0.002,-3.996 -0.438,-0.002 c -0.034,-0.323 -0.097,-0.637 -0.146,-0.955 l 0.445,-0.12 -1.037,-3.859 -0.438,0.116 c -0.116,-0.301 -0.233,-0.601 -0.364,-0.895 l 0.39,-0.225 -2,-3.46 -0.397,0.228 C 34.492,7.904 34.305,7.641 34.103,7.391 L 34.42,7.074 31.592,4.25 31.276,4.564 C 31.026,4.362 30.763,4.176 30.504,3.986 L 30.733,3.588 27.27,1.592 27.044,1.978 C 26.751,1.848 26.452,1.73 26.151,1.615 L 26.269,1.174 22.408,0.142 22.287,0.586 C 21.97,0.536 21.656,0.474 21.334,0.44 V 0 h -4 v 0.44 c -0.322,0.034 -0.636,0.096 -0.953,0.146 l -0.12,-0.445 -3.863,1.035 0.118,0.439 c -0.301,0.116 -0.6,0.233 -0.893,0.363 L 11.399,1.59 7.935,3.59 8.164,3.986 C 7.904,4.175 7.642,4.361 7.393,4.563 L 7.078,4.248 4.25,7.076 4.565,7.391 C 4.363,7.641 4.177,7.903 3.988,8.162 L 3.591,7.934 1.592,11.399 1.979,11.623 c -0.13,0.293 -0.248,0.592 -0.363,0.893 l -0.439,-0.118 -1.034,3.863 0.444,0.12 c -0.05,0.317 -0.112,0.63 -0.146,0.953 H 0 l 0.001,4 H 0.44 c 0.034,0.322 0.096,0.636 0.146,0.953 l -0.444,0.119 1.036,3.863 0.438,-0.117 c 0.116,0.301 0.232,0.599 0.363,0.892 l -0.388,0.224 2.001,3.465 0.396,-0.229 c 0.189,0.26 0.375,0.522 0.577,0.772 l -0.316,0.315 2.829,2.828 0.315,-0.315 c 0.249,0.202 0.511,0.388 0.771,0.577 l -0.23,0.395 3.465,2 0.224,-0.388 c 0.293,0.131 0.592,0.247 0.892,0.363 l -0.118,0.438 3.865,1.035 0.119,-0.443 c 0.317,0.049 0.63,0.111 0.952,0.145 v 0.441 l 3.999,-0.002 10e-4,-0.438 c 0.322,-0.034 0.636,-0.096 0.952,-0.146 l 0.119,0.445 3.863,-1.037 -0.117,-0.438 c 0.301,-0.116 0.6,-0.233 0.893,-0.363 l 0.225,0.389 3.463,-2 -0.229,-0.397 c 0.26,-0.189 0.522,-0.375 0.771,-0.577 l 0.316,0.316 2.828,-2.828 -0.315,-0.316 c 0.202,-0.25 0.388,-0.513 0.577,-0.772 l 0.398,0.229 1.998,-3.463 -0.388,-0.226 c 0.131,-0.293 0.248,-0.593 0.364,-0.894 l 0.439,0.117 1.033,-3.861 -0.443,-0.12 c 0.052,-0.316 0.113,-0.631 0.148,-0.953 z m -5.894,-1.999 c 0,7.179 -5.82,13.001 -13,13.001 -7.18,0 -13,-5.822 -13,-13.001 0,-7.18 5.82,-13 13,-13 7.18,0 13,5.82 13,13 z"
     id="path2"
     inkscape:connector-curvature="0" /><circle
     cx="19.334"
     cy="19.333"
     r="3.5"
     id="circle4" /><polygon
     points="32,26.5 29.5,21.5 34.5,21.5 "
     id="polygon6"
     transform="translate(-12.666,-12.666)" /><polygon
     points="28.111,28.11 22.809,26.343 26.344,22.807 "
     id="polygon8"
     transform="translate(-12.666,-12.666)" /><polygon
     points="26.5,32 21.5,34.5 21.5,29.5 "
     id="polygon10"
     transform="translate(-12.666,-12.666)" /><polygon
     points="28.111,35.889 26.344,41.191 22.809,37.656 "
     id="polygon12"
     transform="translate(-12.666,-12.666)" /><polygon
     points="32,37.5 34.5,42.5 29.501,42.5 "
     id="polygon14"
     transform="translate(-12.666,-12.666)" /><polygon
     points="35.889,35.889 41.193,37.656 37.658,41.191 "
     id="polygon16"
     transform="translate(-12.666,-12.666)" /><polygon
     points="37.5,32 42.5,29.5 42.5,34.5 "
     id="polygon18"
     transform="translate(-12.666,-12.666)" /><polygon
     points="35.891,28.111 37.658,22.808 41.193,26.343 "
     id="polygon20"
     transform="translate(-12.666,-12.666)" /></svg>